<svg width="364" height="240" viewBox="0 0 364 240" xmlns="http://www.w3.org/2000/svg">
<path d="M156.343 40.5748C156.161 40.5747 155.985 40.5065 155.852 40.384C155.718 40.2616 155.637 40.094 155.624 39.915C155.153 33.6108 152.278 27.7143 147.577 23.4054C142.875 19.0965 136.693 16.6931 130.267 16.6761C129.498 16.6761 128.69 16.7145 127.866 16.7904C127.728 16.8032 127.589 16.7766 127.466 16.7138C127.343 16.6511 127.241 16.5549 127.172 16.4366C124.221 11.3542 119.813 7.23944 114.499 4.60585C109.185 1.97226 103.2 0.936481 97.2911 1.62778C91.3824 2.31907 85.8115 4.70682 81.2737 8.49305C76.7358 12.2793 73.432 17.2963 71.7744 22.918C71.7307 23.0687 71.6372 23.2007 71.5088 23.2934C71.3804 23.3861 71.2243 23.4341 71.065 23.43L70.8733 23.4243C70.7735 23.421 70.6738 23.4175 70.5732 23.4175C65.6993 23.4325 60.977 25.0864 57.19 28.1048C53.403 31.1231 50.779 35.3244 49.7533 40.0117C49.7192 40.1709 49.6304 40.3139 49.5019 40.4164C49.3734 40.5189 49.2129 40.5749 49.0474 40.5749H0.719462C0.528473 40.5744 0.345482 40.4994 0.210612 40.3664C0.0757416 40.2334 0 40.0532 0 39.8653C0 39.6774 0.0757416 39.4972 0.210612 39.3642C0.345482 39.2311 0.528473 39.1562 0.719462 39.1557H48.4701C49.6722 34.2803 52.4997 29.9415 56.5015 26.8317C60.5032 23.7218 65.4486 22.0202 70.5483 21.9983C72.3638 16.2213 75.8458 11.0873 80.5711 7.21994C85.2964 3.35262 91.0617 0.918435 97.1667 0.213124C103.272 -0.492188 109.453 0.561729 114.961 3.24683C120.469 5.93193 125.065 10.1326 128.192 15.3386C128.901 15.2843 129.597 15.2569 130.267 15.2569C137.057 15.275 143.591 17.815 148.559 22.3685C153.528 26.9221 156.565 33.1534 157.063 39.8156C157.07 39.9085 157.058 40.0019 157.028 40.0903C156.998 40.1786 156.95 40.2604 156.888 40.3307C156.826 40.4011 156.751 40.4587 156.666 40.5003C156.581 40.5419 156.489 40.5667 156.394 40.5732C156.377 40.5743 156.36 40.5748 156.343 40.5748Z" fill="#CBCBCB"/>
<path d="M147.76 49.6734H29.4548C29.2634 49.6734 29.08 49.5987 28.9447 49.4656C28.8094 49.3325 28.7334 49.152 28.7334 48.9638C28.7334 48.7756 28.8094 48.5951 28.9447 48.462C29.08 48.329 29.2634 48.2542 29.4548 48.2542H147.76C147.951 48.2542 148.135 48.329 148.27 48.462C148.405 48.5951 148.481 48.7756 148.481 48.9638C148.481 49.152 148.405 49.3325 148.27 49.4656C148.135 49.5987 147.951 49.6734 147.76 49.6734Z" fill="#CBCBCB"/>
<path d="M58.3099 59.963H18.6344C18.5395 59.9632 18.4455 59.945 18.3578 59.9095C18.27 59.8739 18.1903 59.8217 18.1231 59.7558C18.0559 59.6899 18.0026 59.6115 17.9662 59.5253C17.9299 59.4391 17.9111 59.3467 17.9111 59.2533C17.9111 59.16 17.9299 59.0676 17.9662 58.9813C18.0026 58.8951 18.0559 58.8168 18.1231 58.7509C18.1903 58.685 18.27 58.6327 18.3578 58.5972C18.4455 58.5616 18.5395 58.5435 18.6344 58.5437H58.3099C58.5009 58.5442 58.6839 58.6192 58.8187 58.7522C58.9536 58.8852 59.0293 59.0655 59.0293 59.2533C59.0293 59.4412 58.9536 59.6214 58.8187 59.7544C58.6839 59.8875 58.5009 59.9625 58.3099 59.963Z" fill="#CBCBCB"/>
<path d="M99.0017 168.566C99.0017 197.416 68.2552 211.22 68.2552 211.22C68.2552 211.22 37.1934 197.416 36.5627 168.566C36.192 151.609 50.5401 137.855 67.7822 137.855C71.882 137.855 75.9416 138.65 79.7294 140.193C83.5171 141.736 86.9587 143.998 89.8577 146.85C92.7567 149.702 95.0563 153.088 96.6253 156.814C98.1942 160.54 99.0017 164.533 99.0017 168.566Z" fill="#E5E5E5"/>
<path d="M78.6618 212.926H57.8487L55.3257 203H81.1843L78.6618 212.926Z" fill="#CBCBCB"/>
<path d="M77.952 229.903H58.5581V239.845H77.952V229.903Z" fill="white"/>
<path d="M78.1097 240H58.4004V229.748H78.1097V240ZM58.7158 239.69H77.7944V230.058H58.7158V239.69Z" fill="#CBCBCB"/>
<path d="M72.2309 214.097H64.2801L63.3677 212.687H73.1434L72.2309 214.097Z" fill="#CBCBCB"/>
<path d="M58.3217 212.926H58.0063V228.127H58.3217V212.926Z" fill="#CBCBCB"/>
<path d="M78.5038 212.926H78.1885V228.127H78.5038V212.926Z" fill="#CBCBCB"/>
<path d="M71.4162 202.831L71.2236 202.586C80.3338 195.675 91.1935 183.835 91.1935 166.678C91.2008 160.669 89.4043 154.792 86.0293 149.783C82.6544 144.774 77.8512 140.858 72.2223 138.524L72.3451 138.238C78.0312 140.596 82.8831 144.552 86.2923 149.612C89.7015 154.671 91.5162 160.608 91.5088 166.678C91.5088 183.961 80.5823 195.878 71.4162 202.831Z" fill="#CBCBCB"/>
<path d="M61.3249 202.832L61.1323 202.586C70.2425 195.675 81.1023 183.835 81.1023 166.678C81.1048 160.71 79.3298 154.871 75.9967 149.884C72.6636 144.896 67.9184 140.978 62.3471 138.614L62.4721 138.33C68.0999 140.718 72.8933 144.675 76.2603 149.713C79.6272 154.751 81.4202 160.649 81.4177 166.678C81.4177 183.961 70.4911 195.878 61.3249 202.832Z" fill="#CBCBCB"/>
<path d="M74.2391 202.831C65.073 195.878 54.1465 183.961 54.1465 166.678C54.144 160.649 55.937 154.751 59.3039 149.713C62.6709 144.675 67.4644 140.718 73.0923 138.33L73.2173 138.614C67.646 140.978 62.9006 144.896 59.5675 149.883C56.2343 154.871 54.4594 160.71 54.4618 166.678C54.4618 183.835 65.3215 195.675 74.4317 202.586L74.2391 202.831Z" fill="#CBCBCB"/>
<path d="M64.1484 202.831C54.9822 195.878 44.0557 183.962 44.0557 166.678C44.0454 160.584 45.8729 154.624 49.3069 149.552C52.741 144.48 57.6272 140.524 63.3474 138.185L63.469 138.471C57.8063 140.787 52.9691 144.703 49.5695 149.724C46.17 154.745 44.3608 160.646 44.371 166.678C44.371 183.835 55.2308 195.675 64.3409 202.586L64.1484 202.831Z" fill="#CBCBCB"/>
<path d="M67.9399 137.855H67.6245V203H67.9399V137.855Z" fill="#CBCBCB"/>
<path d="M64.2294 227.649L58.4468 233.337L58.6697 233.556L64.4523 227.868L64.2294 227.649Z" fill="#CBCBCB"/>
<path d="M67.0402 227.554L58.4443 236.447L58.6728 236.661L67.2687 227.768L67.0402 227.554Z" fill="#CBCBCB"/>
<path d="M79.7654 227.661H56.1143V230.453H79.7654V227.661Z" fill="white"/>
<path d="M79.923 230.608H55.9565V227.506H79.923V230.608ZM56.2719 230.298H79.6077V227.817H56.2719V230.298Z" fill="#CBCBCB"/>
<path d="M211.982 80.3978C211.982 99.4398 191.688 108.551 191.688 108.551C191.688 108.551 171.186 99.4398 170.769 80.3978C170.525 69.2052 179.995 60.1272 191.376 60.1272C196.841 60.1272 202.082 62.2628 205.946 66.0643C209.811 69.8658 211.982 75.0217 211.982 80.3978Z" fill="#E5E5E5"/>
<path d="M198.556 109.677H184.819L183.154 103.125H200.222L198.556 109.677Z" fill="#CBCBCB"/>
<path d="M198.088 120.883H185.287V127.445H198.088V120.883Z" fill="white"/>
<path d="M198.192 127.547H185.183V120.78H198.192V127.547ZM185.391 127.343H197.984V120.985H185.391V127.343Z" fill="#CBCBCB"/>
<path d="M194.312 110.45H189.064L188.461 109.519H194.914L194.312 110.45Z" fill="#CBCBCB"/>
<path d="M185.131 109.677H184.923V119.71H185.131V109.677Z" fill="#CBCBCB"/>
<path d="M198.452 109.677H198.244V119.71H198.452V109.677Z" fill="#CBCBCB"/>
<path d="M193.774 103.014L193.647 102.852C199.66 98.2907 206.828 90.4761 206.828 79.1517C206.833 75.1855 205.647 71.3061 203.419 68.0002C201.192 64.6942 198.021 62.1089 194.306 60.5684L194.387 60.3798C198.14 61.936 201.343 64.5475 203.593 67.887C205.843 71.2265 207.041 75.1452 207.036 79.1517C207.036 90.5593 199.824 98.4248 193.774 103.014Z" fill="#CBCBCB"/>
<path d="M187.113 103.014L186.986 102.852C192.999 98.2908 200.167 90.4762 200.167 79.1517C200.169 75.2121 198.997 71.3584 196.797 68.0665C194.597 64.7746 191.465 62.1887 187.788 60.6283L187.871 60.4404C191.585 62.0166 194.749 64.6287 196.971 67.954C199.194 71.2793 200.377 75.1721 200.376 79.1517C200.376 90.5593 193.164 98.4249 187.113 103.014Z" fill="#CBCBCB"/>
<path d="M195.638 103.014C189.587 98.4249 182.375 90.5594 182.375 79.1518C182.374 75.1722 183.557 71.2793 185.78 67.954C188.002 64.6287 191.166 62.0166 194.881 60.4404L194.963 60.6283C191.286 62.1887 188.154 64.7745 185.954 68.0665C183.754 71.3584 182.582 75.2122 182.584 79.1518C182.584 90.4762 189.752 98.2908 195.765 102.852L195.638 103.014Z" fill="#CBCBCB"/>
<path d="M188.977 103.014C182.927 98.4249 175.715 90.5594 175.715 79.1517C175.708 75.1294 176.914 71.1956 179.181 67.8478C181.448 64.5001 184.673 61.889 188.448 60.3449L188.528 60.5339C184.791 62.0625 181.598 64.6473 179.354 67.9614C177.11 71.2755 175.916 75.1699 175.923 79.1517C175.923 90.4762 183.091 98.2908 189.104 102.852L188.977 103.014Z" fill="#CBCBCB"/>
<path d="M191.48 60.1272H191.271V103.125H191.48V60.1272Z" fill="#CBCBCB"/>
<path d="M189.031 119.395L185.214 123.149L185.361 123.294L189.178 119.54L189.031 119.395Z" fill="#CBCBCB"/>
<path d="M190.886 119.332L185.212 125.202L185.363 125.343L191.037 119.473L190.886 119.332Z" fill="#CBCBCB"/>
<path d="M199.285 119.403H183.674V121.246H199.285V119.403Z" fill="white"/>
<path d="M199.389 121.348H183.57V119.301H199.389V121.348ZM183.778 121.144H199.181V119.506H183.778V121.144Z" fill="#CBCBCB"/>
<path d="M251.932 121.486C252.063 121.486 252.189 121.437 252.284 121.349C252.38 121.262 252.438 121.141 252.447 121.013C252.785 116.494 254.846 112.268 258.216 109.179C261.586 106.091 266.017 104.368 270.623 104.356C271.175 104.356 271.754 104.383 272.345 104.438C272.443 104.447 272.543 104.428 272.631 104.383C272.719 104.338 272.792 104.269 272.841 104.184C274.957 100.541 278.117 97.5918 281.926 95.704C285.735 93.8163 290.025 93.0739 294.26 93.5694C298.495 94.0649 302.488 95.7764 305.741 98.4903C308.994 101.204 311.362 104.8 312.55 108.83C312.581 108.938 312.648 109.033 312.74 109.099C312.832 109.165 312.944 109.2 313.058 109.197L313.196 109.193C313.267 109.19 313.339 109.188 313.411 109.188C316.904 109.199 320.289 110.384 323.004 112.548C325.718 114.711 327.599 117.723 328.334 121.082C328.359 121.197 328.422 121.299 328.515 121.373C328.607 121.446 328.722 121.486 328.84 121.486H363.481C363.549 121.486 363.617 121.473 363.68 121.448C363.743 121.422 363.8 121.385 363.848 121.338C363.896 121.29 363.934 121.234 363.96 121.173C363.986 121.111 364 121.044 364 120.978C364 120.911 363.986 120.844 363.96 120.782C363.934 120.721 363.896 120.665 363.848 120.617C363.8 120.57 363.743 120.533 363.68 120.507C363.617 120.482 363.549 120.469 363.481 120.469H329.254C328.392 116.974 326.366 113.864 323.497 111.635C320.629 109.406 317.084 108.186 313.429 108.171C312.127 104.03 309.632 100.35 306.245 97.5777C302.857 94.8057 298.725 93.0609 294.349 92.5554C289.973 92.0498 285.542 92.8052 281.594 94.7299C277.647 96.6545 274.352 99.6655 272.111 103.397C271.602 103.358 271.103 103.339 270.623 103.339C265.756 103.352 261.073 105.172 257.511 108.436C253.95 111.7 251.773 116.167 251.416 120.942C251.411 121.009 251.42 121.075 251.441 121.139C251.463 121.202 251.497 121.261 251.541 121.311C251.586 121.362 251.64 121.403 251.701 121.433C251.762 121.463 251.828 121.48 251.895 121.485C251.908 121.486 251.92 121.486 251.932 121.486Z" fill="#CBCBCB"/>
<path d="M258.084 128.008H342.884C343.021 128.008 343.153 127.954 343.25 127.859C343.347 127.764 343.401 127.634 343.401 127.499C343.401 127.364 343.347 127.235 343.25 127.14C343.153 127.044 343.021 126.991 342.884 126.991H258.084C257.947 126.991 257.816 127.044 257.719 127.14C257.622 127.235 257.567 127.364 257.567 127.499C257.567 127.634 257.622 127.764 257.719 127.859C257.816 127.954 257.947 128.008 258.084 128.008Z" fill="#CBCBCB"/>
<path d="M322.201 135.383H350.64C350.777 135.383 350.908 135.329 351.005 135.234C351.101 135.138 351.155 135.009 351.155 134.875C351.155 134.74 351.101 134.611 351.005 134.516C350.908 134.42 350.777 134.366 350.64 134.366H322.201C322.133 134.366 322.066 134.379 322.003 134.405C321.941 134.43 321.884 134.468 321.836 134.515C321.788 134.562 321.749 134.618 321.723 134.68C321.697 134.742 321.684 134.808 321.684 134.875C321.684 134.941 321.697 135.008 321.723 135.069C321.749 135.131 321.788 135.187 321.836 135.234C321.884 135.282 321.941 135.319 322.003 135.345C322.066 135.37 322.133 135.383 322.201 135.383Z" fill="#CBCBCB"/>
<path d="M226.659 178.427C226.529 178.427 226.403 178.378 226.307 178.29C226.212 178.202 226.153 178.082 226.144 177.954C225.806 173.435 223.746 169.208 220.376 166.12C217.006 163.031 212.574 161.309 207.968 161.296C207.417 161.296 206.838 161.324 206.247 161.378C206.148 161.387 206.049 161.368 205.961 161.323C205.873 161.278 205.8 161.209 205.75 161.125C203.635 157.482 200.475 154.532 196.666 152.645C192.857 150.757 188.567 150.014 184.332 150.51C180.097 151.005 176.103 152.717 172.851 155.431C169.598 158.145 167.23 161.741 166.042 165.771C166.01 165.879 165.943 165.973 165.851 166.04C165.759 166.106 165.647 166.14 165.533 166.137L165.396 166.133C165.324 166.131 165.253 166.129 165.181 166.129C161.687 166.139 158.302 167.325 155.588 169.488C152.873 171.652 150.993 174.663 150.257 178.023C150.233 178.137 150.169 178.24 150.077 178.313C149.985 178.387 149.87 178.427 149.751 178.427H115.11C115.042 178.427 114.975 178.414 114.912 178.388C114.849 178.363 114.792 178.326 114.744 178.278C114.696 178.231 114.657 178.175 114.631 178.113C114.605 178.051 114.592 177.985 114.592 177.918C114.592 177.851 114.605 177.785 114.631 177.723C114.657 177.661 114.696 177.605 114.744 177.558C114.792 177.511 114.849 177.473 114.912 177.448C114.975 177.422 115.042 177.409 115.11 177.409H149.338C150.199 173.915 152.226 170.805 155.094 168.576C157.963 166.347 161.507 165.127 165.163 165.111C166.464 160.97 168.96 157.29 172.347 154.518C175.734 151.746 179.867 150.001 184.243 149.496C188.619 148.99 193.05 149.746 196.997 151.67C200.945 153.595 204.24 156.606 206.481 160.338C206.99 160.299 207.489 160.279 207.968 160.279C212.836 160.292 217.519 162.113 221.08 165.377C224.642 168.641 226.819 173.107 227.176 177.882C227.181 177.949 227.172 178.016 227.15 178.079C227.129 178.143 227.095 178.201 227.05 178.252C227.006 178.302 226.952 178.343 226.891 178.373C226.83 178.403 226.764 178.421 226.696 178.425C226.684 178.426 226.672 178.427 226.659 178.427Z" fill="#CBCBCB"/>
<path d="M220.507 184.948H135.708C135.64 184.949 135.572 184.936 135.509 184.91C135.446 184.885 135.389 184.847 135.341 184.8C135.293 184.753 135.255 184.697 135.228 184.635C135.202 184.573 135.189 184.507 135.189 184.44C135.189 184.373 135.202 184.307 135.228 184.245C135.255 184.183 135.293 184.127 135.341 184.08C135.389 184.032 135.446 183.995 135.509 183.969C135.572 183.944 135.64 183.931 135.708 183.931H220.507C220.644 183.931 220.776 183.985 220.873 184.08C220.97 184.176 221.024 184.305 221.024 184.44C221.024 184.575 220.97 184.704 220.873 184.8C220.776 184.895 220.644 184.948 220.507 184.948Z" fill="#CBCBCB"/>
<path d="M156.391 192.324H127.952C127.884 192.324 127.816 192.311 127.753 192.286C127.691 192.26 127.633 192.223 127.585 192.175C127.537 192.128 127.499 192.072 127.473 192.01C127.447 191.948 127.433 191.882 127.433 191.815C127.433 191.748 127.447 191.682 127.473 191.62C127.499 191.558 127.537 191.502 127.585 191.455C127.633 191.408 127.691 191.37 127.753 191.345C127.816 191.319 127.884 191.306 127.952 191.307H156.391C156.459 191.306 156.526 191.319 156.589 191.345C156.652 191.37 156.709 191.408 156.757 191.455C156.806 191.502 156.844 191.558 156.87 191.62C156.896 191.682 156.909 191.748 156.909 191.815C156.909 191.882 156.896 191.948 156.87 192.01C156.844 192.072 156.806 192.128 156.757 192.175C156.709 192.223 156.652 192.26 156.589 192.286C156.526 192.311 156.459 192.324 156.391 192.324Z" fill="#CBCBCB"/>
</svg>
