<svg width="144" height="16" viewBox="0 0 144 16" xmlns="http://www.w3.org/2000/svg">
<g clip-path="url(#clip0_281_2567)">
<path d="M75.7405 0C73.7785 0 72.1436 0.525746 70.8354 1.57735C69.5683 2.629 68.9143 3.94331 68.9143 5.52093C68.9143 7.81198 70.5077 9.23913 73.7367 9.84011C75.6986 10.2157 76.2711 10.5539 76.2711 11.1548C76.2711 11.9811 75.4125 12.3944 73.7367 12.3944C72.9601 12.3944 72.1433 12.244 71.3258 11.9435C70.5492 11.6431 69.9356 11.2298 69.5268 10.7039L66.8291 13.7463C68.4232 15.2487 70.5899 16 73.4101 16C77.0887 16 80.7267 14.3849 80.7267 10.4412C80.7267 8.18771 79.378 6.76057 75.7401 6.12202C73.819 5.784 73.2873 5.44618 73.2873 4.84524C73.2873 4.01896 74.2277 3.64289 75.5357 3.64289C77.048 3.64289 78.2329 4.01859 79.1321 4.8073L81.8298 1.80287C80.3175 0.601021 78.3152 7.62022e-05 75.74 7.62022e-05L75.7405 0ZM121.233 0C118.494 0 116.164 0.901437 114.202 2.7418C112.241 4.58216 111.3 6.72308 111.3 9.23962C111.3 11.2678 111.954 12.9205 113.344 14.1599C114.693 15.3994 116.532 16 118.903 16C121.519 16 123.685 15.3242 125.361 14.0097L123.031 10.8542C121.928 11.8683 120.619 12.3571 119.148 12.3571C117.063 12.3571 115.673 11.1171 115.673 9.0514C115.673 5.67117 117.636 3.64308 120.947 3.64308C122.5 3.64308 123.563 4.16917 124.217 5.18325L127.241 2.51662C125.688 0.788943 124.053 0.000266662 121.233 0.000266662L121.233 0ZM83.5463 0.262644L82.8924 3.7559L88.0019 3.7559L85.7131 15.6994H90.046L92.3347 3.7559L97.4442 3.7559L98.0981 0.262644L83.5466 0.262644H83.5463ZM104.065 0.262644L102.308 2.70383L92.8665 15.6991H98.0162L103.207 8.52586L106.518 15.6991H111.137L106.518 5.6337L104.066 0.26234L104.065 0.262644ZM129.367 0.262644L126.424 15.699H130.757L131.656 10.9292L132.555 10.1033L136.356 15.699H141.466L135.907 7.54865L144 0.262264L138.891 0.262264L132.596 5.8961L133.7 0.262264L129.367 0.262264L129.367 0.262644Z" fill="#50A571"/>
<path d="M9.93255 0C7.19399 0 4.86401 0.901437 2.90222 2.7418C0.940426 4.58215 2.05993e-08 6.72308 2.05993e-08 9.23962C2.05993e-08 11.2678 0.654206 12.9205 2.04393 14.1599C3.39277 15.3994 5.23195 16 7.60281 16C10.2188 16 12.385 15.3242 14.0609 14.0097L11.7308 10.8542C10.6273 11.8683 9.31898 12.3571 7.84749 12.3571C5.76289 12.3571 4.37391 11.1171 4.37391 9.0514C4.37391 5.67117 6.33574 3.64308 9.64645 3.64308C11.1997 3.64308 12.2624 4.16917 12.9164 5.18325L15.9406 2.51662C14.3874 0.826504 12.712 0.000266662 9.93234 0.000266662L9.93255 0ZM25.8731 0.262644L24.1153 2.70383L14.6734 15.6991L19.8238 15.6991L25.0149 8.52586L28.2848 15.6991H32.9449L28.3262 5.6337L25.8733 0.26234L25.8731 0.262644ZM37.1547 0.262644L34.2113 15.699H38.5441L39.5665 10.5913H41.5691L43.7763 15.699L48.4356 15.699L45.8607 9.95281C48.1497 9.01385 49.6212 7.13567 49.6212 4.80697C49.6212 3.45487 49.0902 2.36616 48.0275 1.53989C46.9647 0.676049 45.6569 0.262378 44.1037 0.262378L37.1549 0.262378L37.1547 0.262644ZM54.5257 0.262644C53.5447 0.262644 52.7685 0.939322 52.6459 1.7656L52.2781 3.7559L52.0324 5.03268C52.2368 4.31909 52.9319 3.79346 53.7902 3.7559L65.2754 3.7559C66.2564 3.7559 67.0335 3.07956 67.1561 2.21573L67.5238 0.262606L54.5258 0.262606L54.5257 0.262644ZM40.8739 3.68078H43.49C44.5119 3.68078 45.1654 4.20679 45.1654 5.07062C45.1654 6.31004 44.1029 7.13609 42.7949 7.13609H40.1788L40.8739 3.68078ZM53.3816 6.23431C52.4006 6.23431 51.6244 6.91098 51.5017 7.73726L51.1332 9.72756L50.8883 11.0043C51.0927 10.2908 51.7878 9.76512 52.6461 9.72756H64.1313C65.1123 9.72756 65.8894 9.05122 66.012 8.18739L66.3797 6.23427L53.3816 6.23427L53.3816 6.23431ZM52.2372 12.1687C51.2562 12.1687 50.4792 12.845 50.3565 13.7089L49.9888 15.6992L62.9869 15.662C63.9678 15.662 64.7449 14.9856 64.8675 14.1218L65.2352 12.1687H52.2372V12.1687Z" fill="#05406B"/>
</g>
<defs>
<clipPath id="clip0_281_2567">
<rect width="144" height="16" fill="white"/>
</clipPath>
</defs>
</svg>
